<svg width="640" height="320" viewBox="0 0 640 320" fill="none" xmlns="http://www.w3.org/2000/svg">
<g clip-path="url(#clip0_206_285)">
<rect width="640" height="320" transform="matrix(1 0 0 -1 0 320)" fill="#6542FF"/>
<path d="M569.429 157.806H569.63C570.122 157.024 570.815 156.375 571.71 155.861C572.627 155.324 573.655 155.056 574.795 155.056C576.875 155.056 578.429 155.682 579.457 156.934C580.486 158.164 581 159.807 581 161.864V172.026H577.277V162.367C577.277 160.936 576.942 159.941 576.271 159.382C575.623 158.801 574.762 158.51 573.689 158.51C573.04 158.51 572.47 158.645 571.978 158.913C571.486 159.181 571.061 159.55 570.704 160.02C570.346 160.467 570.078 160.992 569.899 161.596C569.72 162.177 569.63 162.792 569.63 163.441V172.026H565.908V155.593H569.429V157.806Z" fill="white" fill-opacity="0.75"/>
<path d="M552.45 179.807C551.309 179.807 550.292 179.651 549.398 179.338C548.526 179.047 547.765 178.667 547.117 178.197C546.469 177.728 545.932 177.202 545.507 176.621C545.105 176.04 544.803 175.481 544.602 174.944L548.157 173.502C548.47 174.374 549.006 175.078 549.766 175.615C550.527 176.174 551.421 176.453 552.45 176.453C553.992 176.453 555.188 175.984 556.038 175.045C556.91 174.106 557.346 172.809 557.346 171.154V169.813H557.145C556.631 170.551 555.915 171.165 554.998 171.657C554.104 172.149 553.053 172.395 551.846 172.395C550.84 172.395 549.867 172.183 548.928 171.758C547.989 171.333 547.15 170.741 546.413 169.98C545.697 169.22 545.127 168.304 544.702 167.23C544.277 166.157 544.065 164.983 544.065 163.709C544.065 162.434 544.277 161.272 544.702 160.221C545.127 159.148 545.697 158.231 546.413 157.471C547.15 156.71 547.989 156.118 548.928 155.693C549.867 155.268 550.84 155.056 551.846 155.056C553.053 155.056 554.104 155.302 554.998 155.794C555.915 156.286 556.631 156.901 557.145 157.638H557.346V155.593H560.935V171.087C560.935 172.496 560.711 173.737 560.264 174.81C559.839 175.906 559.247 176.822 558.486 177.56C557.749 178.298 556.854 178.857 555.803 179.237C554.775 179.617 553.657 179.807 552.45 179.807ZM552.584 168.941C553.187 168.941 553.78 168.829 554.361 168.605C554.943 168.382 555.446 168.046 555.87 167.599C556.318 167.152 556.675 166.604 556.944 165.956C557.212 165.307 557.346 164.558 557.346 163.709C557.346 162.882 557.212 162.144 556.944 161.495C556.675 160.825 556.318 160.277 555.87 159.852C555.446 159.405 554.943 159.069 554.361 158.846C553.78 158.6 553.187 158.477 552.584 158.477C551.958 158.477 551.354 158.6 550.773 158.846C550.214 159.069 549.711 159.405 549.263 159.852C548.816 160.299 548.458 160.847 548.19 161.495C547.922 162.144 547.788 162.882 547.788 163.709C547.788 164.536 547.922 165.274 548.19 165.922C548.458 166.571 548.816 167.119 549.263 167.566C549.711 168.013 550.214 168.359 550.773 168.605C551.354 168.829 551.958 168.941 552.584 168.941Z" fill="white" fill-opacity="0.75"/>
<path d="M538.07 152.675C537.354 152.675 536.751 152.429 536.259 151.937C535.789 151.445 535.555 150.852 535.555 150.159C535.555 149.466 535.789 148.874 536.259 148.382C536.751 147.89 537.354 147.644 538.07 147.644C538.763 147.644 539.344 147.89 539.814 148.382C540.306 148.874 540.552 149.466 540.552 150.159C540.552 150.852 540.306 151.445 539.814 151.937C539.344 152.429 538.763 152.675 538.07 152.675ZM536.192 172.026V155.592H539.915V172.026H536.192Z" fill="white" fill-opacity="0.75"/>
<path d="M525.386 172.563C524.38 172.563 523.474 172.429 522.669 172.16C521.864 171.892 521.16 171.546 520.556 171.121C519.952 170.674 519.438 170.171 519.013 169.612C518.611 169.053 518.298 168.471 518.074 167.868L521.428 166.459C521.808 167.42 522.356 168.136 523.072 168.605C523.787 169.053 524.558 169.276 525.386 169.276C526.325 169.276 527.063 169.086 527.599 168.706C528.136 168.326 528.404 167.901 528.404 167.432C528.404 166.962 528.203 166.56 527.8 166.224C527.398 165.866 526.638 165.553 525.52 165.285L523.172 164.715C522.658 164.603 522.132 164.435 521.596 164.212C521.082 163.966 520.601 163.664 520.154 163.306C519.707 162.926 519.338 162.479 519.047 161.965C518.779 161.428 518.644 160.802 518.644 160.087C518.644 159.282 518.812 158.566 519.148 157.94C519.505 157.314 519.986 156.789 520.59 156.364C521.193 155.939 521.887 155.615 522.669 155.391C523.474 155.168 524.324 155.056 525.218 155.056C525.956 155.056 526.66 155.134 527.331 155.291C528.024 155.447 528.661 155.682 529.243 155.995C529.824 156.308 530.338 156.71 530.785 157.202C531.255 157.672 531.624 158.231 531.892 158.879L528.605 160.254C528.292 159.539 527.8 159.025 527.13 158.712C526.459 158.376 525.777 158.209 525.084 158.209C524.771 158.209 524.447 158.253 524.111 158.343C523.798 158.41 523.508 158.522 523.239 158.678C522.993 158.812 522.781 158.991 522.602 159.215C522.445 159.438 522.367 159.684 522.367 159.953C522.367 160.4 522.557 160.757 522.937 161.026C523.34 161.272 523.944 161.495 524.748 161.697L527.264 162.334C528.963 162.759 530.204 163.407 530.987 164.279C531.791 165.129 532.194 166.135 532.194 167.297C532.194 168.013 532.026 168.684 531.691 169.31C531.378 169.936 530.92 170.495 530.316 170.987C529.712 171.479 528.985 171.859 528.136 172.127C527.309 172.418 526.392 172.563 525.386 172.563Z" fill="white" fill-opacity="0.75"/>
<path d="M514.682 168.102C513.988 169.377 513.005 170.439 511.73 171.288C510.456 172.138 508.891 172.563 507.035 172.563C505.805 172.563 504.665 172.351 503.614 171.926C502.585 171.479 501.691 170.864 500.931 170.081C500.171 169.299 499.578 168.382 499.153 167.331C498.729 166.258 498.516 165.084 498.516 163.809C498.516 162.624 498.717 161.506 499.12 160.456C499.522 159.382 500.081 158.454 500.797 157.672C501.535 156.867 502.418 156.23 503.446 155.76C504.475 155.291 505.615 155.056 506.867 155.056C508.142 155.056 509.271 155.268 510.254 155.693C511.261 156.118 512.11 156.71 512.803 157.471C513.497 158.231 514.022 159.148 514.38 160.221C514.76 161.294 514.95 162.468 514.95 163.742C514.95 163.854 514.95 163.955 514.95 164.044C514.928 164.156 514.916 164.257 514.916 164.346C514.894 164.435 514.883 164.525 514.883 164.614H502.239C502.306 165.397 502.496 166.079 502.809 166.66C503.122 167.242 503.502 167.722 503.949 168.102C504.419 168.482 504.933 168.762 505.492 168.941C506.051 169.12 506.599 169.209 507.135 169.209C508.209 169.209 509.092 168.952 509.785 168.438C510.478 167.923 511.048 167.286 511.495 166.526L514.682 168.102ZM511.227 161.764C511.182 161.428 511.071 161.059 510.892 160.657C510.735 160.232 510.478 159.852 510.12 159.517C509.785 159.159 509.338 158.857 508.779 158.611C508.242 158.365 507.583 158.242 506.8 158.242C505.727 158.242 504.799 158.566 504.016 159.215C503.256 159.841 502.742 160.69 502.474 161.764H511.227Z" fill="white" fill-opacity="0.75"/>
<path d="M491.125 169.913H490.924C490.477 170.629 489.795 171.255 488.878 171.791C487.961 172.306 486.866 172.563 485.591 172.563C484.54 172.563 483.534 172.35 482.573 171.926C481.634 171.478 480.806 170.864 480.091 170.081C479.375 169.298 478.805 168.382 478.38 167.331C477.956 166.258 477.743 165.084 477.743 163.809C477.743 162.535 477.956 161.372 478.38 160.321C478.805 159.248 479.375 158.32 480.091 157.538C480.806 156.755 481.634 156.151 482.573 155.727C483.534 155.279 484.54 155.056 485.591 155.056C486.866 155.056 487.961 155.324 488.878 155.861C489.795 156.375 490.477 156.99 490.924 157.705H491.125L490.924 155.425V148.013H494.646V172.026H491.125V169.913ZM486.295 169.108C486.921 169.108 487.525 168.985 488.106 168.739C488.71 168.494 489.224 168.147 489.649 167.7C490.096 167.253 490.454 166.705 490.722 166.056C490.991 165.386 491.125 164.637 491.125 163.809C491.125 162.982 490.991 162.244 490.722 161.596C490.454 160.925 490.096 160.366 489.649 159.919C489.224 159.472 488.71 159.125 488.106 158.879C487.525 158.633 486.921 158.51 486.295 158.51C485.647 158.51 485.032 158.633 484.451 158.879C483.869 159.125 483.355 159.483 482.908 159.952C482.483 160.4 482.137 160.947 481.868 161.596C481.6 162.244 481.466 162.982 481.466 163.809C481.466 164.637 481.6 165.374 481.868 166.023C482.137 166.671 482.483 167.23 482.908 167.7C483.355 168.147 483.869 168.494 484.451 168.739C485.032 168.985 485.647 169.108 486.295 169.108Z" fill="white" fill-opacity="0.75"/>
<path d="M474.217 168.102C473.524 169.377 472.541 170.439 471.266 171.288C469.992 172.138 468.427 172.563 466.571 172.563C465.341 172.563 464.201 172.351 463.15 171.926C462.121 171.479 461.227 170.864 460.467 170.081C459.707 169.299 459.114 168.382 458.689 167.331C458.264 166.258 458.052 165.084 458.052 163.809C458.052 162.624 458.253 161.506 458.656 160.456C459.058 159.382 459.617 158.454 460.333 157.672C461.07 156.867 461.954 156.23 462.982 155.76C464.011 155.291 465.151 155.056 466.403 155.056C467.677 155.056 468.807 155.268 469.79 155.693C470.797 156.118 471.646 156.71 472.339 157.471C473.032 158.231 473.558 159.148 473.916 160.221C474.296 161.294 474.486 162.468 474.486 163.742C474.486 163.854 474.486 163.955 474.486 164.044C474.463 164.156 474.452 164.257 474.452 164.346C474.43 164.435 474.419 164.525 474.419 164.614H461.775C461.842 165.397 462.032 166.079 462.345 166.66C462.658 167.242 463.038 167.722 463.485 168.102C463.955 168.482 464.469 168.762 465.028 168.941C465.587 169.12 466.135 169.209 466.671 169.209C467.745 169.209 468.628 168.952 469.321 168.438C470.014 167.923 470.584 167.286 471.031 166.526L474.217 168.102ZM470.763 161.764C470.718 161.428 470.607 161.059 470.428 160.657C470.271 160.232 470.014 159.852 469.656 159.517C469.321 159.159 468.874 158.857 468.315 158.611C467.778 158.365 467.119 158.242 466.336 158.242C465.263 158.242 464.335 158.566 463.552 159.215C462.792 159.841 462.278 160.69 462.01 161.764H470.763Z" fill="white" fill-opacity="0.75"/>
<path d="M438.558 148.013H447.043C448.139 148.013 449.156 148.192 450.095 148.549C451.057 148.907 451.884 149.421 452.577 150.092C453.27 150.741 453.807 151.512 454.187 152.406C454.589 153.301 454.791 154.284 454.791 155.358C454.791 156.185 454.645 156.968 454.355 157.705C454.086 158.443 453.706 159.114 453.214 159.718C452.722 160.299 452.141 160.802 451.47 161.227C450.822 161.652 450.118 161.965 449.357 162.166L449.324 162.334L455.897 171.825V172.026H451.47L445.132 162.669H442.348V172.026H438.558V148.013ZM446.943 159.114C447.502 159.114 448.016 159.025 448.485 158.846C448.977 158.644 449.402 158.376 449.76 158.041C450.118 157.705 450.397 157.314 450.598 156.867C450.822 156.397 450.934 155.883 450.934 155.324C450.934 154.877 450.844 154.43 450.665 153.983C450.509 153.535 450.263 153.133 449.928 152.775C449.615 152.418 449.212 152.127 448.72 151.903C448.251 151.68 447.703 151.568 447.077 151.568H442.348V159.114H446.943Z" fill="white" fill-opacity="0.75"/>
<path d="M412.68 159.55L405.268 148.013H409.93L415.162 156.532H415.363L420.595 148.013H425.257L417.845 159.55L425.793 172.026H421.165L415.363 162.803H415.162L409.359 172.026H404.731L412.68 159.55Z" fill="white"/>
<path d="M387.606 148.013H402.228V151.635H391.396V158.51H401.155V162.065H391.396V172.026H387.606V148.013Z" fill="white"/>
<path d="M369.986 169.913H369.784C369.337 170.629 368.655 171.255 367.739 171.791C366.822 172.306 365.726 172.563 364.452 172.563C363.401 172.563 362.395 172.35 361.433 171.926C360.494 171.478 359.667 170.864 358.952 170.081C358.236 169.298 357.666 168.382 357.241 167.331C356.816 166.258 356.604 165.084 356.604 163.809C356.604 162.535 356.816 161.372 357.241 160.321C357.666 159.248 358.236 158.32 358.952 157.538C359.667 156.755 360.494 156.151 361.433 155.727C362.395 155.279 363.401 155.056 364.452 155.056C365.726 155.056 366.822 155.324 367.739 155.861C368.655 156.375 369.337 156.99 369.784 157.705H369.986L369.784 155.425V148.013H373.507V172.026H369.986V169.913ZM365.156 169.108C365.782 169.108 366.386 168.985 366.967 168.739C367.571 168.494 368.085 168.147 368.51 167.7C368.957 167.253 369.315 166.705 369.583 166.056C369.852 165.386 369.986 164.637 369.986 163.809C369.986 162.982 369.852 162.244 369.583 161.596C369.315 160.925 368.957 160.366 368.51 159.919C368.085 159.472 367.571 159.125 366.967 158.879C366.386 158.633 365.782 158.51 365.156 158.51C364.508 158.51 363.893 158.633 363.312 158.879C362.73 159.125 362.216 159.483 361.769 159.952C361.344 160.4 360.997 160.947 360.729 161.596C360.461 162.244 360.327 162.982 360.327 163.809C360.327 164.637 360.461 165.374 360.729 166.023C360.997 166.671 361.344 167.23 361.769 167.7C362.216 168.147 362.73 168.494 363.312 168.739C363.893 168.985 364.508 169.108 365.156 169.108Z" fill="white"/>
<path d="M350.61 152.675C349.894 152.675 349.291 152.429 348.799 151.937C348.329 151.445 348.095 150.852 348.095 150.159C348.095 149.466 348.329 148.874 348.799 148.382C349.291 147.89 349.894 147.644 350.61 147.644C351.303 147.644 351.884 147.89 352.354 148.382C352.846 148.874 353.092 149.466 353.092 150.159C353.092 150.852 352.846 151.445 352.354 151.937C351.884 152.429 351.303 152.675 350.61 152.675ZM348.732 172.026V155.592H352.455V172.026H348.732Z" fill="white"/>
<path d="M336.156 155.056C337.408 155.056 338.56 155.28 339.611 155.727C340.662 156.152 341.567 156.755 342.327 157.538C343.087 158.32 343.68 159.248 344.105 160.321C344.53 161.395 344.742 162.557 344.742 163.809C344.742 165.062 344.53 166.224 344.105 167.297C343.68 168.371 343.087 169.299 342.327 170.081C341.567 170.864 340.662 171.479 339.611 171.926C338.56 172.351 337.408 172.563 336.156 172.563C334.904 172.563 333.753 172.351 332.702 171.926C331.651 171.479 330.745 170.864 329.985 170.081C329.225 169.299 328.632 168.371 328.208 167.297C327.783 166.224 327.57 165.062 327.57 163.809C327.57 162.557 327.783 161.395 328.208 160.321C328.632 159.248 329.225 158.32 329.985 157.538C330.745 156.755 331.651 156.152 332.702 155.727C333.753 155.28 334.904 155.056 336.156 155.056ZM336.156 169.108C336.782 169.108 337.386 168.986 337.967 168.74C338.549 168.494 339.063 168.147 339.51 167.7C339.98 167.253 340.349 166.705 340.617 166.056C340.885 165.386 341.019 164.637 341.019 163.809C341.019 162.982 340.885 162.244 340.617 161.596C340.349 160.925 339.98 160.366 339.51 159.919C339.063 159.472 338.549 159.125 337.967 158.879C337.386 158.633 336.782 158.51 336.156 158.51C335.53 158.51 334.926 158.633 334.345 158.879C333.764 159.125 333.238 159.472 332.769 159.919C332.322 160.366 331.964 160.925 331.696 161.596C331.427 162.244 331.293 162.982 331.293 163.809C331.293 164.637 331.427 165.386 331.696 166.056C331.964 166.705 332.322 167.253 332.769 167.7C333.238 168.147 333.764 168.494 334.345 168.74C334.926 168.986 335.53 169.108 336.156 169.108Z" fill="white"/>
<path d="M315.401 155.593H318.922V158.074H319.123C319.324 157.65 319.593 157.258 319.928 156.901C320.286 156.52 320.677 156.207 321.102 155.962C321.549 155.693 322.008 155.492 322.477 155.358C322.969 155.201 323.439 155.123 323.886 155.123C324.422 155.123 324.881 155.168 325.261 155.257C325.641 155.347 325.987 155.47 326.3 155.626L325.227 159.081C324.981 158.969 324.702 158.891 324.389 158.846C324.098 158.779 323.74 158.745 323.316 158.745C322.712 158.745 322.153 158.868 321.639 159.114C321.147 159.36 320.711 159.695 320.331 160.12C319.951 160.545 319.649 161.048 319.425 161.629C319.224 162.211 319.123 162.826 319.123 163.474V172.026H315.401V155.593Z" fill="white"/>
<path d="M306.908 169.913H306.706C306.259 170.629 305.577 171.255 304.66 171.791C303.744 172.306 302.648 172.563 301.374 172.563C300.323 172.563 299.317 172.35 298.355 171.926C297.416 171.478 296.589 170.864 295.873 170.081C295.158 169.298 294.588 168.382 294.163 167.331C293.738 166.258 293.526 165.084 293.526 163.809C293.526 162.535 293.738 161.372 294.163 160.321C294.588 159.248 295.158 158.32 295.873 157.538C296.589 156.755 297.416 156.151 298.355 155.727C299.317 155.279 300.323 155.056 301.374 155.056C302.648 155.056 303.744 155.324 304.66 155.861C305.577 156.375 306.259 156.99 306.706 157.705H306.908L306.706 155.425V148.013H310.429V172.026H306.908V169.913ZM302.078 169.108C302.704 169.108 303.308 168.985 303.889 168.739C304.493 168.494 305.007 168.147 305.432 167.7C305.879 167.253 306.237 166.705 306.505 166.056C306.773 165.386 306.908 164.637 306.908 163.809C306.908 162.982 306.773 162.244 306.505 161.596C306.237 160.925 305.879 160.366 305.432 159.919C305.007 159.472 304.493 159.125 303.889 158.879C303.308 158.633 302.704 158.51 302.078 158.51C301.43 158.51 300.815 158.633 300.233 158.879C299.652 159.125 299.138 159.483 298.691 159.952C298.266 160.4 297.919 160.947 297.651 161.596C297.383 162.244 297.248 162.982 297.248 163.809C297.248 164.637 297.383 165.374 297.651 166.023C297.919 166.671 298.266 167.23 298.691 167.7C299.138 168.147 299.652 168.494 300.233 168.739C300.815 168.985 301.43 169.108 302.078 169.108Z" fill="white"/>
<path d="M278.065 157.806H278.266C278.758 157.024 279.451 156.375 280.345 155.861C281.262 155.324 282.29 155.056 283.431 155.056C285.51 155.056 287.064 155.682 288.092 156.934C289.121 158.164 289.635 159.807 289.635 161.864V172.026H285.912V162.367C285.912 160.936 285.577 159.941 284.906 159.382C284.258 158.801 283.397 158.51 282.324 158.51C281.675 158.51 281.105 158.645 280.613 158.913C280.122 159.181 279.697 159.55 279.339 160.02C278.981 160.467 278.713 160.992 278.534 161.596C278.355 162.177 278.266 162.792 278.266 163.441V172.026H274.543V155.593H278.065V157.806Z" fill="white"/>
<path d="M257.648 148.013H262.008L271.03 172.026H266.838L264.658 165.855H254.999L252.819 172.026H248.627L257.648 148.013ZM263.383 162.401L260.868 155.324L259.929 152.507H259.728L258.789 155.324L256.273 162.401H263.383Z" fill="white"/>
<path d="M238.903 172.026V167.499H228.171V164.547L238.601 149.086H242.659V164.011H245.543V167.499H242.659V172.026H238.903ZM238.903 154.62H238.702L232.363 164.011H238.903V154.62Z" fill="white"/>
<path d="M208.602 148.013H217.087C218.183 148.013 219.2 148.192 220.139 148.549C221.101 148.907 221.928 149.421 222.621 150.092C223.314 150.741 223.851 151.512 224.231 152.406C224.633 153.301 224.834 154.284 224.834 155.358C224.834 156.185 224.689 156.968 224.398 157.705C224.13 158.443 223.75 159.114 223.258 159.718C222.766 160.299 222.185 160.802 221.514 161.227C220.866 161.652 220.161 161.965 219.401 162.166L219.368 162.334L225.941 171.825V172.026H221.514L215.175 162.669H212.392V172.026H208.602V148.013ZM216.986 159.114C217.545 159.114 218.06 159.025 218.529 158.846C219.021 158.644 219.446 158.376 219.804 158.041C220.161 157.705 220.441 157.314 220.642 156.867C220.866 156.397 220.978 155.883 220.978 155.324C220.978 154.877 220.888 154.43 220.709 153.983C220.553 153.535 220.307 153.133 219.971 152.775C219.658 152.418 219.256 152.127 218.764 151.903C218.294 151.68 217.747 151.568 217.121 151.568H212.392V159.114H216.986Z" fill="white"/>
<path d="M192.406 151.635V158.242H202.166V161.797H192.406V168.404H203.239V172.026H188.616V148.013H203.239V151.635H192.406Z" fill="white"/>
<path d="M168.007 172.026V148.013H176.324C177.398 148.013 178.404 148.192 179.343 148.549C180.304 148.907 181.143 149.41 181.858 150.059C182.574 150.707 183.133 151.49 183.535 152.406C183.96 153.301 184.172 154.296 184.172 155.391C184.172 156.464 183.96 157.459 183.535 158.376C183.133 159.27 182.574 160.042 181.858 160.69C181.143 161.339 180.304 161.842 179.343 162.199C178.404 162.557 177.398 162.736 176.324 162.736H171.797V172.026H168.007ZM176.425 159.114C177.051 159.114 177.61 159.013 178.102 158.812C178.594 158.589 179.007 158.298 179.343 157.94C179.678 157.582 179.935 157.18 180.114 156.733C180.293 156.286 180.382 155.838 180.382 155.391C180.382 154.922 180.293 154.463 180.114 154.016C179.935 153.569 179.678 153.178 179.343 152.842C179.007 152.485 178.594 152.194 178.102 151.97C177.61 151.747 177.051 151.635 176.425 151.635H171.797V159.114H176.425Z" fill="white"/>
<path d="M160.373 152.675C159.657 152.675 159.054 152.429 158.562 151.937C158.092 151.445 157.857 150.852 157.857 150.159C157.857 149.466 158.092 148.874 158.562 148.382C159.054 147.89 159.657 147.644 160.373 147.644C161.066 147.644 161.647 147.89 162.117 148.382C162.609 148.874 162.855 149.466 162.855 150.159C162.855 150.852 162.609 151.445 162.117 151.937C161.647 152.429 161.066 152.675 160.373 152.675ZM158.495 172.026V155.592H162.217V172.026H158.495Z" fill="white"/>
<path d="M134.176 148.013H138.335L143.668 163.776L144.54 166.526H144.741L145.613 163.776L151.214 148.013H155.373L146.619 172.026H142.662L134.176 148.013Z" fill="white"/>
<path d="M100.482 133L88.225 162.693L75.9944 133H75.9677H59L83.2204 187.168L107.173 133H100.482Z" fill="white"/>
<g opacity="0.4">
<path opacity="0.1" d="M660.454 51C660.454 92.6724 626.672 126.455 585 126.455C543.327 126.455 509.545 92.6724 509.545 51C509.545 9.32762 543.327 -24.4545 585 -24.4545C626.672 -24.4545 660.454 9.32762 660.454 51Z" fill="white"/>
<path opacity="0.1" d="M683.091 50.9999C683.091 105.174 639.174 149.091 585 149.091C530.826 149.091 486.909 105.174 486.909 50.9999C486.909 -3.17421 530.826 -47.091 585 -47.091C639.174 -47.091 683.091 -3.17421 683.091 50.9999Z" fill="white"/>
<path opacity="0.1" d="M705.727 51C705.727 117.676 651.675 171.727 584.999 171.727C518.324 171.727 464.272 117.676 464.272 51C464.272 -15.6758 518.324 -69.7272 584.999 -69.7272C651.675 -69.7272 705.727 -15.6758 705.727 51Z" fill="white"/>
<path opacity="0.1" d="M728.364 50.9999C728.364 130.177 664.177 194.363 585 194.363C505.822 194.363 441.636 130.177 441.636 50.9999C441.636 -28.1776 505.822 -92.3637 585 -92.3637C664.177 -92.3637 728.364 -28.1776 728.364 50.9999Z" fill="white"/>
<path opacity="0.1" d="M751 51C751 142.679 676.679 217 585 217C493.321 217 419 142.679 419 51C419 -40.6793 493.321 -115 585 -115C676.679 -115 751 -40.6793 751 51Z" fill="white"/>
</g>
<g opacity="0.4">
<path opacity="0.1" d="M118.454 286C118.454 327.672 84.6721 361.455 42.9997 361.455C1.32731 361.455 -32.4548 327.672 -32.4548 286C-32.4548 244.328 1.32731 210.546 42.9997 210.546C84.6721 210.546 118.454 244.328 118.454 286Z" fill="white"/>
<path opacity="0.1" d="M141.091 286C141.091 340.174 97.1744 384.091 43.0003 384.091C-11.1738 384.091 -55.0906 340.174 -55.0906 286C-55.0906 231.826 -11.1738 187.909 43.0003 187.909C97.1744 187.909 141.091 231.826 141.091 286Z" fill="white"/>
<path opacity="0.1" d="M163.727 286C163.727 352.676 109.675 406.727 42.9993 406.727C-23.6765 406.727 -77.7279 352.676 -77.7279 286C-77.7279 219.324 -23.6765 165.273 42.9993 165.273C109.675 165.273 163.727 219.324 163.727 286Z" fill="white"/>
<path opacity="0.1" d="M186.364 286C186.364 365.177 122.177 429.363 42.9999 429.363C-36.1776 429.363 -100.364 365.177 -100.364 286C-100.364 206.822 -36.1776 142.636 42.9999 142.636C122.177 142.636 186.364 206.822 186.364 286Z" fill="white"/>
<path opacity="0.1" d="M209 286C209 377.679 134.679 452 43 452C-48.6793 452 -123 377.679 -123 286C-123 194.321 -48.6793 120 43 120C134.679 120 209 194.321 209 286Z" fill="white"/>
</g>
<g clip-path="url(#clip1_206_285)">
<path d="M622.946 302.618C622.939 302.58 622.933 302.541 622.927 302.503C622.763 301.514 622.444 300.558 621.98 299.669C621.526 298.799 620.941 298.003 620.244 297.311C619.736 296.805 619.172 296.358 618.563 295.979C618.567 295.973 618.57 295.966 618.574 295.96C618.765 295.63 618.957 295.3 619.148 294.97C619.469 294.416 619.79 293.862 620.111 293.308C620.189 293.173 620.23 293.02 620.229 292.865C620.228 292.709 620.185 292.557 620.105 292.423C620.031 292.299 619.927 292.196 619.803 292.122C619.69 292.055 619.564 292.015 619.433 292.003C619.333 291.995 619.232 292.003 619.134 292.029C619.024 292.058 618.92 292.109 618.829 292.179C618.738 292.248 618.662 292.335 618.605 292.434L618.202 293.128L617.642 294.096C617.45 294.426 617.259 294.756 617.068 295.086C617.047 295.122 617.026 295.158 617.005 295.194C616.976 295.183 616.947 295.171 616.918 295.16C615.835 294.748 614.685 294.537 613.526 294.538C613.493 294.538 613.461 294.538 613.428 294.539C612.394 294.548 611.368 294.726 610.392 295.066C610.282 295.104 610.173 295.145 610.065 295.187C610.045 295.154 610.025 295.12 610.006 295.086C609.815 294.756 609.623 294.426 609.432 294.096C609.111 293.542 608.79 292.988 608.469 292.434C608.386 292.291 608.265 292.174 608.118 292.098C607.971 292.022 607.806 291.989 607.641 292.003C607.51 292.015 607.383 292.055 607.27 292.123C607.075 292.239 606.932 292.427 606.874 292.647C606.832 292.809 606.836 292.979 606.887 293.138C606.906 293.197 606.931 293.253 606.962 293.308C607.097 293.54 607.231 293.772 607.365 294.003C607.552 294.325 607.739 294.648 607.926 294.97C608.117 295.3 608.309 295.63 608.5 295.96C608.501 295.963 608.503 295.966 608.504 295.969C607.89 296.351 607.32 296.801 606.807 297.312C606.425 297.692 606.076 298.103 605.763 298.542C605.506 298.901 605.275 299.278 605.072 299.67C604.72 300.345 604.45 301.06 604.269 301.799C604.212 302.032 604.164 302.267 604.125 302.504C604.095 302.68 604.071 302.858 604.052 303.036H622.999C622.983 302.897 622.965 302.758 622.944 302.619L622.946 302.618Z" fill="#43DC8A"/>
<path d="M618.455 300.416C618.834 300.164 618.889 299.58 618.578 299.112C618.267 298.644 617.708 298.47 617.329 298.722C616.949 298.975 616.894 299.558 617.206 300.026C617.517 300.494 618.076 300.669 618.455 300.416ZM609.865 300.028C610.176 299.56 610.121 298.976 609.742 298.724C609.362 298.471 608.803 298.646 608.492 299.114C608.181 299.582 608.236 300.166 608.615 300.418C608.994 300.67 609.554 300.496 609.865 300.028ZM594.682 299.488C594.682 298.217 595.6 297.213 596.757 297.213C597.915 297.213 598.762 298.188 598.762 299.488C598.762 300.788 597.901 301.791 596.757 301.791C595.614 301.791 594.682 300.773 594.682 299.488ZM590.701 303.034H592.324V295.97H590.701L590.701 303.034ZM590.447 293.611C590.447 294.219 590.941 294.713 591.52 294.713C592.098 294.713 592.579 294.219 592.579 293.611C592.579 293.046 592.098 292.566 591.52 292.566C590.941 292.566 590.447 293.046 590.447 293.611ZM584.079 299.474C584.079 298.202 585.011 297.213 586.211 297.213C587.411 297.213 588.343 298.202 588.343 299.474C588.343 300.745 587.397 301.79 586.211 301.79C585.025 301.79 584.079 300.759 584.079 299.474ZM582.427 299.474C582.427 301.593 584.094 303.26 586.211 303.26C588.329 303.26 589.995 301.593 589.995 299.474C589.995 297.355 588.357 295.744 586.211 295.744C584.065 295.744 582.427 297.369 582.427 299.474ZM578.037 303.034H579.66V299.333C579.66 297.863 580.437 297.213 581.736 297.213C581.976 297.213 582.159 297.228 582.329 297.27V295.843C582.159 295.787 581.863 295.744 581.538 295.744C579.336 295.744 578.037 297.129 578.037 299.333V303.034ZM571.528 299.488C571.528 298.216 572.446 297.213 573.604 297.213C574.762 297.213 575.609 298.188 575.609 299.488C575.609 300.787 574.747 301.79 573.604 301.79C572.46 301.79 571.528 300.773 571.528 299.488ZM569.877 299.488C569.877 301.536 571.514 303.259 573.448 303.259C574.253 303.259 574.987 302.935 575.425 302.398H575.496V303.033H577.119V292.001H575.496V296.55H575.425C575.001 296.041 574.267 295.744 573.448 295.744C571.5 295.744 569.877 297.454 569.877 299.488ZM562.761 303.034H564.385V298.895C564.385 297.906 565.048 297.213 565.966 297.213C566.884 297.213 567.547 297.906 567.547 298.895V303.034H569.171V298.895C569.171 297.171 567.801 295.744 565.966 295.744C564.131 295.744 562.761 297.171 562.761 298.895V303.034ZM555.307 298.796L557.058 293.781H557.142L558.893 298.796L555.307 298.796ZM552.003 303.034H553.839L554.756 300.406H559.443L560.361 303.034H562.197L558.116 292.001H556.083L552.003 303.034ZM596.602 303.26C597.407 303.26 598.141 302.935 598.579 302.398H598.649V303.034H600.273V292.001H598.649V296.55H598.578C598.155 296.041 597.421 295.744 596.602 295.744C594.654 295.744 593.03 297.454 593.03 299.488C593.03 301.522 594.668 303.26 596.602 303.26Z" fill="white"/>
<path d="M618.455 300.416C618.834 300.164 618.889 299.58 618.578 299.112C618.267 298.644 617.708 298.47 617.329 298.722C616.949 298.975 616.894 299.558 617.206 300.026C617.517 300.494 618.076 300.669 618.455 300.416ZM609.865 300.028C610.176 299.56 610.121 298.976 609.742 298.724C609.362 298.471 608.803 298.646 608.492 299.114C608.181 299.582 608.236 300.166 608.615 300.418C608.994 300.67 609.554 300.496 609.865 300.028Z" fill="black"/>
</g>
</g>
<defs>
<clipPath id="clip0_206_285">
<rect width="640" height="320" transform="matrix(1 0 0 -1 0 320)" fill="white"/>
</clipPath>
<clipPath id="clip1_206_285">
<rect width="71" height="11.3706" fill="white" transform="translate(552 292)"/>
</clipPath>
</defs>
</svg>
