<svg width="2040" height="386" viewBox="0 0 2040 386" fill="none" xmlns="http://www.w3.org/2000/svg">
<rect width="2040" height="386" transform="matrix(1 0 0 -1 0 386)" fill="#6542FF"/>
<path d="M378.568 153.24H392.208L409.698 204.94L412.558 213.96H413.218L416.078 204.94L434.448 153.24H448.088L419.378 232H406.398L378.568 153.24ZM464.487 168.53C462.14 168.53 460.16 167.723 458.547 166.11C457.007 164.497 456.237 162.553 456.237 160.28C456.237 158.007 457.007 156.063 458.547 154.45C460.16 152.837 462.14 152.03 464.487 152.03C466.76 152.03 468.667 152.837 470.207 154.45C471.82 156.063 472.627 158.007 472.627 160.28C472.627 162.553 471.82 164.497 470.207 166.11C468.667 167.723 466.76 168.53 464.487 168.53ZM458.327 232V178.1H470.537V232H458.327ZM489.525 232V153.24H516.805C520.325 153.24 523.625 153.827 526.705 155C529.859 156.173 532.609 157.823 534.955 159.95C537.302 162.077 539.135 164.643 540.455 167.65C541.849 170.583 542.545 173.847 542.545 177.44C542.545 180.96 541.849 184.223 540.455 187.23C539.135 190.163 537.302 192.693 534.955 194.82C532.609 196.947 529.859 198.597 526.705 199.77C523.625 200.943 520.325 201.53 516.805 201.53H501.955V232H489.525ZM517.135 189.65C519.189 189.65 521.022 189.32 522.635 188.66C524.249 187.927 525.605 186.973 526.705 185.8C527.805 184.627 528.649 183.307 529.235 181.84C529.822 180.373 530.115 178.907 530.115 177.44C530.115 175.9 529.822 174.397 529.235 172.93C528.649 171.463 527.805 170.18 526.705 169.08C525.605 167.907 524.249 166.953 522.635 166.22C521.022 165.487 519.189 165.12 517.135 165.12H501.955V189.65H517.135ZM569.549 165.12V186.79H601.559V198.45H569.549V220.12H605.079V232H557.119V153.24H605.079V165.12H569.549ZM622.672 153.24H650.502C654.095 153.24 657.432 153.827 660.512 155C663.665 156.173 666.379 157.86 668.652 160.06C670.925 162.187 672.685 164.717 673.932 167.65C675.252 170.583 675.912 173.81 675.912 177.33C675.912 180.043 675.435 182.61 674.482 185.03C673.602 187.45 672.355 189.65 670.742 191.63C669.129 193.537 667.222 195.187 665.022 196.58C662.895 197.973 660.585 199 658.092 199.66L657.982 200.21L679.542 231.34V232H665.022L644.232 201.31H635.102V232H622.672V153.24ZM650.172 189.65C652.005 189.65 653.692 189.357 655.232 188.77C656.845 188.11 658.239 187.23 659.412 186.13C660.585 185.03 661.502 183.747 662.162 182.28C662.895 180.74 663.262 179.053 663.262 177.22C663.262 175.753 662.969 174.287 662.382 172.82C661.869 171.353 661.062 170.033 659.962 168.86C658.935 167.687 657.615 166.733 656.002 166C654.462 165.267 652.665 164.9 650.612 164.9H635.102V189.65H650.172ZM722.053 232V217.15H686.853V207.47L721.063 156.76H734.373V205.71H743.833V217.15H734.373V232H722.053ZM722.053 174.91H721.393L700.603 205.71H722.053V174.91ZM783.535 153.24H797.835L827.425 232H813.675L806.525 211.76H774.845L767.695 232H753.945L783.535 153.24ZM802.345 200.43L794.095 177.22L791.015 167.98H790.355L787.275 177.22L779.025 200.43H802.345ZM850.497 185.36H851.157C852.77 182.793 855.044 180.667 857.977 178.98C860.984 177.22 864.357 176.34 868.097 176.34C874.917 176.34 880.014 178.393 883.387 182.5C886.76 186.533 888.447 191.923 888.447 198.67V232H876.237V200.32C876.237 195.627 875.137 192.363 872.937 190.53C870.81 188.623 867.987 187.67 864.467 187.67C862.34 187.67 860.47 188.11 858.857 188.99C857.244 189.87 855.85 191.08 854.677 192.62C853.504 194.087 852.624 195.81 852.037 197.79C851.45 199.697 851.157 201.713 851.157 203.84V232H838.947V178.1H850.497V185.36ZM945.095 225.07H944.435C942.968 227.417 940.732 229.47 937.725 231.23C934.718 232.917 931.125 233.76 926.945 233.76C923.498 233.76 920.198 233.063 917.045 231.67C913.965 230.203 911.252 228.187 908.905 225.62C906.558 223.053 904.688 220.047 903.295 216.6C901.902 213.08 901.205 209.23 901.205 205.05C901.205 200.87 901.902 197.057 903.295 193.61C904.688 190.09 906.558 187.047 908.905 184.48C911.252 181.913 913.965 179.933 917.045 178.54C920.198 177.073 923.498 176.34 926.945 176.34C931.125 176.34 934.718 177.22 937.725 178.98C940.732 180.667 942.968 182.683 944.435 185.03H945.095L944.435 177.55V153.24H956.645V232H945.095V225.07ZM929.255 222.43C931.308 222.43 933.288 222.027 935.195 221.22C937.175 220.413 938.862 219.277 940.255 217.81C941.722 216.343 942.895 214.547 943.775 212.42C944.655 210.22 945.095 207.763 945.095 205.05C945.095 202.337 944.655 199.917 943.775 197.79C942.895 195.59 941.722 193.757 940.255 192.29C938.862 190.823 937.175 189.687 935.195 188.88C933.288 188.073 931.308 187.67 929.255 187.67C927.128 187.67 925.112 188.073 923.205 188.88C921.298 189.687 919.612 190.86 918.145 192.4C916.752 193.867 915.615 195.663 914.735 197.79C913.855 199.917 913.415 202.337 913.415 205.05C913.415 207.763 913.855 210.183 914.735 212.31C915.615 214.437 916.752 216.27 918.145 217.81C919.612 219.277 921.298 220.413 923.205 221.22C925.112 222.027 927.128 222.43 929.255 222.43ZM972.953 178.1H984.503V186.24H985.163C985.823 184.847 986.703 183.563 987.803 182.39C988.976 181.143 990.26 180.117 991.653 179.31C993.12 178.43 994.623 177.77 996.163 177.33C997.776 176.817 999.316 176.56 1000.78 176.56C1002.54 176.56 1004.05 176.707 1005.29 177C1006.54 177.293 1007.68 177.697 1008.7 178.21L1005.18 189.54C1004.38 189.173 1003.46 188.917 1002.43 188.77C1001.48 188.55 1000.31 188.44 998.913 188.44C996.933 188.44 995.1 188.843 993.413 189.65C991.8 190.457 990.37 191.557 989.123 192.95C987.876 194.343 986.886 195.993 986.153 197.9C985.493 199.807 985.163 201.823 985.163 203.95V232H972.953V178.1ZM1041.03 176.34C1045.13 176.34 1048.91 177.073 1052.36 178.54C1055.8 179.933 1058.77 181.913 1061.27 184.48C1063.76 187.047 1065.7 190.09 1067.1 193.61C1068.49 197.13 1069.19 200.943 1069.19 205.05C1069.19 209.157 1068.49 212.97 1067.1 216.49C1065.7 220.01 1063.76 223.053 1061.27 225.62C1058.77 228.187 1055.8 230.203 1052.36 231.67C1048.91 233.063 1045.13 233.76 1041.03 233.76C1036.92 233.76 1033.14 233.063 1029.7 231.67C1026.25 230.203 1023.28 228.187 1020.79 225.62C1018.29 223.053 1016.35 220.01 1014.96 216.49C1013.56 212.97 1012.87 209.157 1012.87 205.05C1012.87 200.943 1013.56 197.13 1014.96 193.61C1016.35 190.09 1018.29 187.047 1020.79 184.48C1023.28 181.913 1026.25 179.933 1029.7 178.54C1033.14 177.073 1036.92 176.34 1041.03 176.34ZM1041.03 222.43C1043.08 222.43 1045.06 222.027 1046.97 221.22C1048.87 220.413 1050.56 219.277 1052.03 217.81C1053.57 216.343 1054.78 214.547 1055.66 212.42C1056.54 210.22 1056.98 207.763 1056.98 205.05C1056.98 202.337 1056.54 199.917 1055.66 197.79C1054.78 195.59 1053.57 193.757 1052.03 192.29C1050.56 190.823 1048.87 189.687 1046.97 188.88C1045.06 188.073 1043.08 187.67 1041.03 187.67C1038.97 187.67 1036.99 188.073 1035.09 188.88C1033.18 189.687 1031.46 190.823 1029.92 192.29C1028.45 193.757 1027.28 195.59 1026.4 197.79C1025.52 199.917 1025.08 202.337 1025.08 205.05C1025.08 207.763 1025.52 210.22 1026.4 212.42C1027.28 214.547 1028.45 216.343 1029.92 217.81C1031.46 219.277 1033.18 220.413 1035.09 221.22C1036.99 222.027 1038.97 222.43 1041.03 222.43ZM1088.43 168.53C1086.09 168.53 1084.11 167.723 1082.49 166.11C1080.95 164.497 1080.18 162.553 1080.18 160.28C1080.18 158.007 1080.95 156.063 1082.49 154.45C1084.11 152.837 1086.09 152.03 1088.43 152.03C1090.71 152.03 1092.61 152.837 1094.15 154.45C1095.77 156.063 1096.57 158.007 1096.57 160.28C1096.57 162.553 1095.77 164.497 1094.15 166.11C1092.61 167.723 1090.71 168.53 1088.43 168.53ZM1082.27 232V178.1H1094.48V232H1082.27ZM1151.98 225.07H1151.32C1149.86 227.417 1147.62 229.47 1144.61 231.23C1141.61 232.917 1138.01 233.76 1133.83 233.76C1130.39 233.76 1127.09 233.063 1123.93 231.67C1120.85 230.203 1118.14 228.187 1115.79 225.62C1113.45 223.053 1111.58 220.047 1110.18 216.6C1108.79 213.08 1108.09 209.23 1108.09 205.05C1108.09 200.87 1108.79 197.057 1110.18 193.61C1111.58 190.09 1113.45 187.047 1115.79 184.48C1118.14 181.913 1120.85 179.933 1123.93 178.54C1127.09 177.073 1130.39 176.34 1133.83 176.34C1138.01 176.34 1141.61 177.22 1144.61 178.98C1147.62 180.667 1149.86 182.683 1151.32 185.03H1151.98L1151.32 177.55V153.24H1163.53V232H1151.98V225.07ZM1136.14 222.43C1138.2 222.43 1140.18 222.027 1142.08 221.22C1144.06 220.413 1145.75 219.277 1147.14 217.81C1148.61 216.343 1149.78 214.547 1150.66 212.42C1151.54 210.22 1151.98 207.763 1151.98 205.05C1151.98 202.337 1151.54 199.917 1150.66 197.79C1149.78 195.59 1148.61 193.757 1147.14 192.29C1145.75 190.823 1144.06 189.687 1142.08 188.88C1140.18 188.073 1138.2 187.67 1136.14 187.67C1134.02 187.67 1132 188.073 1130.09 188.88C1128.19 189.687 1126.5 190.86 1125.03 192.4C1123.64 193.867 1122.5 195.663 1121.62 197.79C1120.74 199.917 1120.3 202.337 1120.3 205.05C1120.3 207.763 1120.74 210.183 1121.62 212.31C1122.5 214.437 1123.64 216.27 1125.03 217.81C1126.5 219.277 1128.19 220.413 1130.09 221.22C1132 222.027 1134.02 222.43 1136.14 222.43ZM1209.77 153.24H1257.73V165.12H1222.2V187.67H1254.21V199.33H1222.2V232H1209.77V153.24ZM1292.01 191.08L1267.7 153.24H1282.99L1300.15 181.18H1300.81L1317.97 153.24H1333.26L1308.95 191.08L1335.02 232H1319.84L1300.81 201.75H1300.15L1281.12 232H1265.94L1292.01 191.08Z" fill="white"/>
<path d="M1376.89 153.24H1404.72C1408.31 153.24 1411.65 153.827 1414.73 155C1417.88 156.173 1420.6 157.86 1422.87 160.06C1425.14 162.187 1426.9 164.717 1428.15 167.65C1429.47 170.583 1430.13 173.81 1430.13 177.33C1430.13 180.043 1429.65 182.61 1428.7 185.03C1427.82 187.45 1426.57 189.65 1424.96 191.63C1423.35 193.537 1421.44 195.187 1419.24 196.58C1417.11 197.973 1414.8 199 1412.31 199.66L1412.2 200.21L1433.76 231.34V232H1419.24L1398.45 201.31H1389.32V232H1376.89V153.24ZM1404.39 189.65C1406.22 189.65 1407.91 189.357 1409.45 188.77C1411.06 188.11 1412.46 187.23 1413.63 186.13C1414.8 185.03 1415.72 183.747 1416.38 182.28C1417.11 180.74 1417.48 179.053 1417.48 177.22C1417.48 175.753 1417.19 174.287 1416.6 172.82C1416.09 171.353 1415.28 170.033 1414.18 168.86C1413.15 167.687 1411.83 166.733 1410.22 166C1408.68 165.267 1406.88 164.9 1404.83 164.9H1389.32V189.65H1404.39ZM1493.84 219.13C1491.57 223.31 1488.34 226.793 1484.16 229.58C1479.98 232.367 1474.85 233.76 1468.76 233.76C1464.73 233.76 1460.99 233.063 1457.54 231.67C1454.17 230.203 1451.24 228.187 1448.74 225.62C1446.25 223.053 1444.31 220.047 1442.91 216.6C1441.52 213.08 1440.82 209.23 1440.82 205.05C1440.82 201.163 1441.48 197.497 1442.8 194.05C1444.12 190.53 1445.96 187.487 1448.3 184.92C1450.72 182.28 1453.62 180.19 1456.99 178.65C1460.37 177.11 1464.11 176.34 1468.21 176.34C1472.39 176.34 1476.1 177.037 1479.32 178.43C1482.62 179.823 1485.41 181.767 1487.68 184.26C1489.96 186.753 1491.68 189.76 1492.85 193.28C1494.1 196.8 1494.72 200.65 1494.72 204.83C1494.72 205.197 1494.72 205.527 1494.72 205.82C1494.65 206.187 1494.61 206.517 1494.61 206.81C1494.54 207.103 1494.5 207.397 1494.5 207.69H1453.03C1453.25 210.257 1453.88 212.493 1454.9 214.4C1455.93 216.307 1457.18 217.883 1458.64 219.13C1460.18 220.377 1461.87 221.293 1463.7 221.88C1465.54 222.467 1467.33 222.76 1469.09 222.76C1472.61 222.76 1475.51 221.917 1477.78 220.23C1480.06 218.543 1481.93 216.453 1483.39 213.96L1493.84 219.13ZM1482.51 198.34C1482.37 197.24 1482 196.03 1481.41 194.71C1480.9 193.317 1480.06 192.07 1478.88 190.97C1477.78 189.797 1476.32 188.807 1474.48 188C1472.72 187.193 1470.56 186.79 1467.99 186.79C1464.47 186.79 1461.43 187.853 1458.86 189.98C1456.37 192.033 1454.68 194.82 1453.8 198.34H1482.51ZM1549.3 225.07H1548.64C1547.17 227.417 1544.94 229.47 1541.93 231.23C1538.92 232.917 1535.33 233.76 1531.15 233.76C1527.7 233.76 1524.4 233.063 1521.25 231.67C1518.17 230.203 1515.46 228.187 1513.11 225.62C1510.76 223.053 1508.89 220.047 1507.5 216.6C1506.11 213.08 1505.41 209.23 1505.41 205.05C1505.41 200.87 1506.11 197.057 1507.5 193.61C1508.89 190.09 1510.76 187.047 1513.11 184.48C1515.46 181.913 1518.17 179.933 1521.25 178.54C1524.4 177.073 1527.7 176.34 1531.15 176.34C1535.33 176.34 1538.92 177.22 1541.93 178.98C1544.94 180.667 1547.17 182.683 1548.64 185.03H1549.3L1548.64 177.55V153.24H1560.85V232H1549.3V225.07ZM1533.46 222.43C1535.51 222.43 1537.49 222.027 1539.4 221.22C1541.38 220.413 1543.07 219.277 1544.46 217.81C1545.93 216.343 1547.1 214.547 1547.98 212.42C1548.86 210.22 1549.3 207.763 1549.3 205.05C1549.3 202.337 1548.86 199.917 1547.98 197.79C1547.1 195.59 1545.93 193.757 1544.46 192.29C1543.07 190.823 1541.38 189.687 1539.4 188.88C1537.49 188.073 1535.51 187.67 1533.46 187.67C1531.33 187.67 1529.32 188.073 1527.41 188.88C1525.5 189.687 1523.82 190.86 1522.35 192.4C1520.96 193.867 1519.82 195.663 1518.94 197.79C1518.06 199.917 1517.62 202.337 1517.62 205.05C1517.62 207.763 1518.06 210.183 1518.94 212.31C1519.82 214.437 1520.96 216.27 1522.35 217.81C1523.82 219.277 1525.5 220.413 1527.41 221.22C1529.32 222.027 1531.33 222.43 1533.46 222.43ZM1626.56 219.13C1624.29 223.31 1621.06 226.793 1616.88 229.58C1612.7 232.367 1607.57 233.76 1601.48 233.76C1597.45 233.76 1593.71 233.063 1590.26 231.67C1586.89 230.203 1583.95 228.187 1581.46 225.62C1578.97 223.053 1577.02 220.047 1575.63 216.6C1574.24 213.08 1573.54 209.23 1573.54 205.05C1573.54 201.163 1574.2 197.497 1575.52 194.05C1576.84 190.53 1578.67 187.487 1581.02 184.92C1583.44 182.28 1586.34 180.19 1589.71 178.65C1593.08 177.11 1596.82 176.34 1600.93 176.34C1605.11 176.34 1608.81 177.037 1612.04 178.43C1615.34 179.823 1618.13 181.767 1620.4 184.26C1622.67 186.753 1624.4 189.76 1625.57 193.28C1626.82 196.8 1627.44 200.65 1627.44 204.83C1627.44 205.197 1627.44 205.527 1627.44 205.82C1627.37 206.187 1627.33 206.517 1627.33 206.81C1627.26 207.103 1627.22 207.397 1627.22 207.69H1585.75C1585.97 210.257 1586.59 212.493 1587.62 214.4C1588.65 216.307 1589.89 217.883 1591.36 219.13C1592.9 220.377 1594.59 221.293 1596.42 221.88C1598.25 222.467 1600.05 222.76 1601.81 222.76C1605.33 222.76 1608.23 221.917 1610.5 220.23C1612.77 218.543 1614.64 216.453 1616.11 213.96L1626.56 219.13ZM1615.23 198.34C1615.08 197.24 1614.72 196.03 1614.13 194.71C1613.62 193.317 1612.77 192.07 1611.6 190.97C1610.5 189.797 1609.03 188.807 1607.2 188C1605.44 187.193 1603.28 186.79 1600.71 186.79C1597.19 186.79 1594.15 187.853 1591.58 189.98C1589.09 192.033 1587.4 194.82 1586.52 198.34H1615.23ZM1661.67 233.76C1658.37 233.76 1655.4 233.32 1652.76 232.44C1650.12 231.56 1647.81 230.423 1645.83 229.03C1643.85 227.563 1642.16 225.913 1640.77 224.08C1639.45 222.247 1638.42 220.34 1637.69 218.36L1648.69 213.74C1649.93 216.893 1651.73 219.24 1654.08 220.78C1656.42 222.247 1658.95 222.98 1661.67 222.98C1664.75 222.98 1667.17 222.357 1668.93 221.11C1670.69 219.863 1671.57 218.47 1671.57 216.93C1671.57 215.39 1670.91 214.07 1669.59 212.97C1668.27 211.797 1665.77 210.77 1662.11 209.89L1654.41 208.02C1652.72 207.653 1651 207.103 1649.24 206.37C1647.55 205.563 1645.97 204.573 1644.51 203.4C1643.04 202.153 1641.83 200.687 1640.88 199C1640 197.24 1639.56 195.187 1639.56 192.84C1639.56 190.2 1640.11 187.853 1641.21 185.8C1642.38 183.747 1643.96 182.023 1645.94 180.63C1647.92 179.237 1650.19 178.173 1652.76 177.44C1655.4 176.707 1658.18 176.34 1661.12 176.34C1663.54 176.34 1665.85 176.597 1668.05 177.11C1670.32 177.623 1672.41 178.393 1674.32 179.42C1676.22 180.447 1677.91 181.767 1679.38 183.38C1680.92 184.92 1682.13 186.753 1683.01 188.88L1672.23 193.39C1671.2 191.043 1669.59 189.357 1667.39 188.33C1665.19 187.23 1662.95 186.68 1660.68 186.68C1659.65 186.68 1658.59 186.827 1657.49 187.12C1656.46 187.34 1655.51 187.707 1654.63 188.22C1653.82 188.66 1653.12 189.247 1652.54 189.98C1652.02 190.713 1651.77 191.52 1651.77 192.4C1651.77 193.867 1652.39 195.04 1653.64 195.92C1654.96 196.727 1656.94 197.46 1659.58 198.12L1667.83 200.21C1673.4 201.603 1677.47 203.73 1680.04 206.59C1682.68 209.377 1684 212.677 1684 216.49C1684 218.837 1683.45 221.037 1682.35 223.09C1681.32 225.143 1679.82 226.977 1677.84 228.59C1675.86 230.203 1673.47 231.45 1670.69 232.33C1667.97 233.283 1664.97 233.76 1661.67 233.76ZM1703.27 168.53C1700.93 168.53 1698.95 167.723 1697.33 166.11C1695.79 164.497 1695.02 162.553 1695.02 160.28C1695.02 158.007 1695.79 156.063 1697.33 154.45C1698.95 152.837 1700.93 152.03 1703.27 152.03C1705.55 152.03 1707.45 152.837 1708.99 154.45C1710.61 156.063 1711.41 158.007 1711.41 160.28C1711.41 162.553 1710.61 164.497 1708.99 166.11C1707.45 167.723 1705.55 168.53 1703.27 168.53ZM1697.11 232V178.1H1709.32V232H1697.11ZM1750.43 257.52C1746.69 257.52 1743.36 257.007 1740.42 255.98C1737.56 255.027 1735.07 253.78 1732.94 252.24C1730.82 250.7 1729.06 248.977 1727.66 247.07C1726.34 245.163 1725.35 243.33 1724.69 241.57L1736.35 236.84C1737.38 239.7 1739.14 242.01 1741.63 243.77C1744.13 245.603 1747.06 246.52 1750.43 246.52C1755.49 246.52 1759.42 244.98 1762.2 241.9C1765.06 238.82 1766.49 234.567 1766.49 229.14V224.74H1765.83C1764.15 227.16 1761.8 229.177 1758.79 230.79C1755.86 232.403 1752.41 233.21 1748.45 233.21C1745.15 233.21 1741.96 232.513 1738.88 231.12C1735.8 229.727 1733.05 227.783 1730.63 225.29C1728.29 222.797 1726.42 219.79 1725.02 216.27C1723.63 212.75 1722.93 208.9 1722.93 204.72C1722.93 200.54 1723.63 196.727 1725.02 193.28C1726.42 189.76 1728.29 186.753 1730.63 184.26C1733.05 181.767 1735.8 179.823 1738.88 178.43C1741.96 177.037 1745.15 176.34 1748.45 176.34C1752.41 176.34 1755.86 177.147 1758.79 178.76C1761.8 180.373 1764.15 182.39 1765.83 184.81H1766.49V178.1H1778.26V228.92C1778.26 233.54 1777.53 237.61 1776.06 241.13C1774.67 244.723 1772.73 247.73 1770.23 250.15C1767.81 252.57 1764.88 254.403 1761.43 255.65C1758.06 256.897 1754.39 257.52 1750.43 257.52ZM1750.87 221.88C1752.85 221.88 1754.8 221.513 1756.7 220.78C1758.61 220.047 1760.26 218.947 1761.65 217.48C1763.12 216.013 1764.29 214.217 1765.17 212.09C1766.05 209.963 1766.49 207.507 1766.49 204.72C1766.49 202.007 1766.05 199.587 1765.17 197.46C1764.29 195.26 1763.12 193.463 1761.65 192.07C1760.26 190.603 1758.61 189.503 1756.7 188.77C1754.8 187.963 1752.85 187.56 1750.87 187.56C1748.82 187.56 1746.84 187.963 1744.93 188.77C1743.1 189.503 1741.45 190.603 1739.98 192.07C1738.52 193.537 1737.34 195.333 1736.46 197.46C1735.58 199.587 1735.14 202.007 1735.14 204.72C1735.14 207.433 1735.58 209.853 1736.46 211.98C1737.34 214.107 1738.52 215.903 1739.98 217.37C1741.45 218.837 1743.1 219.973 1744.93 220.78C1746.84 221.513 1748.82 221.88 1750.87 221.88ZM1806.12 185.36H1806.78C1808.4 182.793 1810.67 180.667 1813.6 178.98C1816.61 177.22 1819.98 176.34 1823.72 176.34C1830.54 176.34 1835.64 178.393 1839.01 182.5C1842.39 186.533 1844.07 191.923 1844.07 198.67V232H1831.86V200.32C1831.86 195.627 1830.76 192.363 1828.56 190.53C1826.44 188.623 1823.61 187.67 1820.09 187.67C1817.97 187.67 1816.1 188.11 1814.48 188.99C1812.87 189.87 1811.48 191.08 1810.3 192.62C1809.13 194.087 1808.25 195.81 1807.66 197.79C1807.08 199.697 1806.78 201.713 1806.78 203.84V232H1794.57V178.1H1806.12V185.36Z" fill="white" fill-opacity="0.75"/>
<path d="M268.056 104L227.853 201.389L187.739 104H187.651H132L211.439 281.662L290 104H268.056Z" fill="white"/>
</svg>
