<svg width="2040" height="386" viewBox="0 0 2040 386" fill="none" xmlns="http://www.w3.org/2000/svg">
<rect width="2040" height="386" transform="matrix(1 0 0 -1 0 386)" fill="#6542FF"/>
<path d="M362.411 147.352H378.283L398.635 207.512L401.963 218.008H402.731L406.059 207.512L427.435 147.352H443.307L409.899 239H394.795L362.411 147.352ZM461.735 165.144C459.004 165.144 456.7 164.205 454.823 162.328C453.031 160.451 452.135 158.189 452.135 155.544C452.135 152.899 453.031 150.637 454.823 148.76C456.7 146.883 459.004 145.944 461.735 145.944C464.38 145.944 466.599 146.883 468.391 148.76C470.268 150.637 471.207 152.899 471.207 155.544C471.207 158.189 470.268 160.451 468.391 162.328C466.599 164.205 464.38 165.144 461.735 165.144ZM454.567 239V176.28H468.775V239H454.567ZM490.216 239V147.352H521.96C526.056 147.352 529.896 148.035 533.48 149.4C537.149 150.765 540.349 152.685 543.08 155.16C545.811 157.635 547.944 160.621 549.48 164.12C551.101 167.533 551.912 171.331 551.912 175.512C551.912 179.608 551.101 183.405 549.48 186.904C547.944 190.317 545.811 193.261 543.08 195.736C540.349 198.211 537.149 200.131 533.48 201.496C529.896 202.861 526.056 203.544 521.96 203.544H504.68V239H490.216ZM522.344 189.72C524.733 189.72 526.867 189.336 528.744 188.568C530.621 187.715 532.2 186.605 533.48 185.24C534.76 183.875 535.741 182.339 536.424 180.632C537.107 178.925 537.448 177.219 537.448 175.512C537.448 173.72 537.107 171.971 536.424 170.264C535.741 168.557 534.76 167.064 533.48 165.784C532.2 164.419 530.621 163.309 528.744 162.456C526.867 161.603 524.733 161.176 522.344 161.176H504.68V189.72H522.344ZM582.68 161.176V186.392H619.928V199.96H582.68V225.176H624.024V239H568.216V147.352H624.024V161.176H582.68ZM643.841 147.352H676.225C680.406 147.352 684.289 148.035 687.873 149.4C691.542 150.765 694.7 152.728 697.345 155.288C699.99 157.763 702.038 160.707 703.489 164.12C705.025 167.533 705.793 171.288 705.793 175.384C705.793 178.541 705.238 181.528 704.129 184.344C703.105 187.16 701.654 189.72 699.777 192.024C697.9 194.243 695.681 196.163 693.121 197.784C690.646 199.405 687.958 200.6 685.057 201.368L684.929 202.008L710.017 238.232V239H693.121L668.929 203.288H658.305V239H643.841V147.352ZM675.841 189.72C677.974 189.72 679.937 189.379 681.729 188.696C683.606 187.928 685.228 186.904 686.593 185.624C687.958 184.344 689.025 182.851 689.793 181.144C690.646 179.352 691.073 177.389 691.073 175.256C691.073 173.549 690.732 171.843 690.049 170.136C689.452 168.429 688.513 166.893 687.233 165.528C686.038 164.163 684.502 163.053 682.625 162.2C680.833 161.347 678.742 160.92 676.353 160.92H658.305V189.72H675.841ZM758.83 239V221.72H717.87V210.456L757.678 151.448H773.166V208.408H784.174V221.72H773.166V239H758.83ZM758.83 172.568H758.062L733.87 208.408H758.83V172.568ZM829.718 147.352H846.358L880.79 239H864.79L856.47 215.448H819.606L811.286 239H795.286L829.718 147.352ZM851.606 202.264L842.006 175.256L838.422 164.504H837.654L834.07 175.256L824.47 202.264H851.606ZM906.983 184.728H907.751C909.628 181.741 912.274 179.267 915.687 177.304C919.186 175.256 923.111 174.232 927.463 174.232C935.399 174.232 941.33 176.621 945.255 181.4C949.18 186.093 951.143 192.365 951.143 200.216V239H936.935V202.136C936.935 196.675 935.655 192.877 933.095 190.744C930.62 188.525 927.335 187.416 923.239 187.416C920.764 187.416 918.588 187.928 916.711 188.952C914.834 189.976 913.212 191.384 911.847 193.176C910.482 194.883 909.458 196.888 908.775 199.192C908.092 201.411 907.751 203.757 907.751 206.232V239H893.543V176.28H906.983V184.728ZM1016.41 230.936H1015.64C1013.93 233.667 1011.33 236.056 1007.83 238.104C1004.33 240.067 1000.15 241.048 995.286 241.048C991.275 241.048 987.435 240.237 983.766 238.616C980.182 236.909 977.025 234.563 974.294 231.576C971.563 228.589 969.387 225.091 967.766 221.08C966.145 216.984 965.334 212.504 965.334 207.64C965.334 202.776 966.145 198.339 967.766 194.328C969.387 190.232 971.563 186.691 974.294 183.704C977.025 180.717 980.182 178.413 983.766 176.792C987.435 175.085 991.275 174.232 995.286 174.232C1000.15 174.232 1004.33 175.256 1007.83 177.304C1011.33 179.267 1013.93 181.613 1015.64 184.344H1016.41L1015.64 175.64V147.352H1029.85V239H1016.41V230.936ZM997.974 227.864C1000.36 227.864 1002.67 227.395 1004.89 226.456C1007.19 225.517 1009.15 224.195 1010.77 222.488C1012.48 220.781 1013.85 218.691 1014.87 216.216C1015.89 213.656 1016.41 210.797 1016.41 207.64C1016.41 204.483 1015.89 201.667 1014.87 199.192C1013.85 196.632 1012.48 194.499 1010.77 192.792C1009.15 191.085 1007.19 189.763 1004.89 188.824C1002.67 187.885 1000.36 187.416 997.974 187.416C995.499 187.416 993.153 187.885 990.934 188.824C988.715 189.763 986.753 191.128 985.046 192.92C983.425 194.627 982.102 196.717 981.078 199.192C980.054 201.667 979.542 204.483 979.542 207.64C979.542 210.797 980.054 213.613 981.078 216.088C982.102 218.563 983.425 220.696 985.046 222.488C986.753 224.195 988.715 225.517 990.934 226.456C993.153 227.395 995.499 227.864 997.974 227.864ZM1048.17 176.28H1061.61V185.752H1062.38C1063.14 184.131 1064.17 182.637 1065.45 181.272C1066.81 179.821 1068.31 178.627 1069.93 177.688C1071.63 176.664 1073.38 175.896 1075.18 175.384C1077.05 174.787 1078.85 174.488 1080.55 174.488C1082.6 174.488 1084.35 174.659 1085.8 175C1087.25 175.341 1088.57 175.811 1089.77 176.408L1085.67 189.592C1084.73 189.165 1083.67 188.867 1082.47 188.696C1081.36 188.44 1080 188.312 1078.38 188.312C1076.07 188.312 1073.94 188.781 1071.98 189.72C1070.1 190.659 1068.43 191.939 1066.98 193.56C1065.53 195.181 1064.38 197.101 1063.53 199.32C1062.76 201.539 1062.38 203.885 1062.38 206.36V239H1048.17V176.28ZM1126.73 174.232C1131.51 174.232 1135.9 175.085 1139.91 176.792C1143.92 178.413 1147.38 180.717 1150.28 183.704C1153.18 186.691 1155.44 190.232 1157.06 194.328C1158.68 198.424 1159.5 202.861 1159.5 207.64C1159.5 212.419 1158.68 216.856 1157.06 220.952C1155.44 225.048 1153.18 228.589 1150.28 231.576C1147.38 234.563 1143.92 236.909 1139.91 238.616C1135.9 240.237 1131.51 241.048 1126.73 241.048C1121.95 241.048 1117.55 240.237 1113.54 238.616C1109.53 236.909 1106.08 234.563 1103.18 231.576C1100.27 228.589 1098.01 225.048 1096.39 220.952C1094.77 216.856 1093.96 212.419 1093.96 207.64C1093.96 202.861 1094.77 198.424 1096.39 194.328C1098.01 190.232 1100.27 186.691 1103.18 183.704C1106.08 180.717 1109.53 178.413 1113.54 176.792C1117.55 175.085 1121.95 174.232 1126.73 174.232ZM1126.73 227.864C1129.12 227.864 1131.42 227.395 1133.64 226.456C1135.86 225.517 1137.82 224.195 1139.53 222.488C1141.32 220.781 1142.73 218.691 1143.75 216.216C1144.78 213.656 1145.29 210.797 1145.29 207.64C1145.29 204.483 1144.78 201.667 1143.75 199.192C1142.73 196.632 1141.32 194.499 1139.53 192.792C1137.82 191.085 1135.86 189.763 1133.64 188.824C1131.42 187.885 1129.12 187.416 1126.73 187.416C1124.34 187.416 1122.03 187.885 1119.82 188.824C1117.6 189.763 1115.59 191.085 1113.8 192.792C1112.09 194.499 1110.73 196.632 1109.7 199.192C1108.68 201.667 1108.17 204.483 1108.17 207.64C1108.17 210.797 1108.68 213.656 1109.7 216.216C1110.73 218.691 1112.09 220.781 1113.8 222.488C1115.59 224.195 1117.6 225.517 1119.82 226.456C1122.03 227.395 1124.34 227.864 1126.73 227.864ZM1181.24 165.144C1178.5 165.144 1176.2 164.205 1174.32 162.328C1172.53 160.451 1171.64 158.189 1171.64 155.544C1171.64 152.899 1172.53 150.637 1174.32 148.76C1176.2 146.883 1178.5 145.944 1181.24 145.944C1183.88 145.944 1186.1 146.883 1187.89 148.76C1189.77 150.637 1190.71 152.899 1190.71 155.544C1190.71 158.189 1189.77 160.451 1187.89 162.328C1186.1 164.205 1183.88 165.144 1181.24 165.144ZM1174.07 239V176.28H1188.28V239H1174.07ZM1254.53 230.936H1253.76C1252.06 233.667 1249.45 236.056 1245.96 238.104C1242.46 240.067 1238.28 241.048 1233.41 241.048C1229.4 241.048 1225.56 240.237 1221.89 238.616C1218.31 236.909 1215.15 234.563 1212.42 231.576C1209.69 228.589 1207.51 225.091 1205.89 221.08C1204.27 216.984 1203.46 212.504 1203.46 207.64C1203.46 202.776 1204.27 198.339 1205.89 194.328C1207.51 190.232 1209.69 186.691 1212.42 183.704C1215.15 180.717 1218.31 178.413 1221.89 176.792C1225.56 175.085 1229.4 174.232 1233.41 174.232C1238.28 174.232 1242.46 175.256 1245.96 177.304C1249.45 179.267 1252.06 181.613 1253.76 184.344H1254.53L1253.76 175.64V147.352H1267.97V239H1254.53V230.936ZM1236.1 227.864C1238.49 227.864 1240.79 227.395 1243.01 226.456C1245.32 225.517 1247.28 224.195 1248.9 222.488C1250.61 220.781 1251.97 218.691 1253 216.216C1254.02 213.656 1254.53 210.797 1254.53 207.64C1254.53 204.483 1254.02 201.667 1253 199.192C1251.97 196.632 1250.61 194.499 1248.9 192.792C1247.28 191.085 1245.32 189.763 1243.01 188.824C1240.79 187.885 1238.49 187.416 1236.1 187.416C1233.62 187.416 1231.28 187.885 1229.06 188.824C1226.84 189.763 1224.88 191.128 1223.17 192.92C1221.55 194.627 1220.23 196.717 1219.2 199.192C1218.18 201.667 1217.67 204.483 1217.67 207.64C1217.67 210.797 1218.18 213.613 1219.2 216.088C1220.23 218.563 1221.55 220.696 1223.17 222.488C1224.88 224.195 1226.84 225.517 1229.06 226.456C1231.28 227.395 1233.62 227.864 1236.1 227.864Z" fill="white"/>
<path d="M1320.47 147.352H1352.85C1357.03 147.352 1360.91 148.035 1364.5 149.4C1368.17 150.765 1371.32 152.728 1373.97 155.288C1376.62 157.763 1378.66 160.707 1380.11 164.12C1381.65 167.533 1382.42 171.288 1382.42 175.384C1382.42 178.541 1381.86 181.528 1380.75 184.344C1379.73 187.16 1378.28 189.72 1376.4 192.024C1374.52 194.243 1372.31 196.163 1369.75 197.784C1367.27 199.405 1364.58 200.6 1361.68 201.368L1361.55 202.008L1386.64 238.232V239H1369.75L1345.55 203.288H1334.93V239H1320.47V147.352ZM1352.47 189.72C1354.6 189.72 1356.56 189.379 1358.35 188.696C1360.23 187.928 1361.85 186.904 1363.22 185.624C1364.58 184.344 1365.65 182.851 1366.42 181.144C1367.27 179.352 1367.7 177.389 1367.7 175.256C1367.7 173.549 1367.36 171.843 1366.67 170.136C1366.08 168.429 1365.14 166.893 1363.86 165.528C1362.66 164.163 1361.13 163.053 1359.25 162.2C1357.46 161.347 1355.37 160.92 1352.98 160.92H1334.93V189.72H1352.47ZM1455.91 224.024C1453.26 228.888 1449.51 232.941 1444.64 236.184C1439.78 239.427 1433.8 241.048 1426.72 241.048C1422.03 241.048 1417.68 240.237 1413.67 238.616C1409.74 236.909 1406.33 234.563 1403.43 231.576C1400.52 228.589 1398.26 225.091 1396.64 221.08C1395.02 216.984 1394.21 212.504 1394.21 207.64C1394.21 203.117 1394.98 198.851 1396.51 194.84C1398.05 190.744 1400.18 187.203 1402.91 184.216C1405.73 181.144 1409.1 178.712 1413.03 176.92C1416.95 175.128 1421.3 174.232 1426.08 174.232C1430.95 174.232 1435.25 175.043 1439.01 176.664C1442.85 178.285 1446.09 180.547 1448.74 183.448C1451.38 186.349 1453.39 189.848 1454.75 193.944C1456.2 198.04 1456.93 202.52 1456.93 207.384C1456.93 207.811 1456.93 208.195 1456.93 208.536C1456.84 208.963 1456.8 209.347 1456.8 209.688C1456.72 210.029 1456.67 210.371 1456.67 210.712H1408.42C1408.67 213.699 1409.4 216.301 1410.59 218.52C1411.79 220.739 1413.24 222.573 1414.95 224.024C1416.74 225.475 1418.7 226.541 1420.83 227.224C1422.97 227.907 1425.06 228.248 1427.11 228.248C1431.2 228.248 1434.57 227.267 1437.22 225.304C1439.86 223.341 1442.04 220.909 1443.75 218.008L1455.91 224.024ZM1442.72 199.832C1442.55 198.552 1442.12 197.144 1441.44 195.608C1440.84 193.987 1439.86 192.536 1438.5 191.256C1437.22 189.891 1435.51 188.739 1433.38 187.8C1431.33 186.861 1428.81 186.392 1425.83 186.392C1421.73 186.392 1418.19 187.629 1415.2 190.104C1412.3 192.493 1410.34 195.736 1409.31 199.832H1442.72ZM1519.78 230.936H1519.01C1517.31 233.667 1514.7 236.056 1511.21 238.104C1507.71 240.067 1503.53 241.048 1498.66 241.048C1494.65 241.048 1490.81 240.237 1487.14 238.616C1483.56 236.909 1480.4 234.563 1477.67 231.576C1474.94 228.589 1472.76 225.091 1471.14 221.08C1469.52 216.984 1468.71 212.504 1468.71 207.64C1468.71 202.776 1469.52 198.339 1471.14 194.328C1472.76 190.232 1474.94 186.691 1477.67 183.704C1480.4 180.717 1483.56 178.413 1487.14 176.792C1490.81 175.085 1494.65 174.232 1498.66 174.232C1503.53 174.232 1507.71 175.256 1511.21 177.304C1514.7 179.267 1517.31 181.613 1519.01 184.344H1519.78L1519.01 175.64V147.352H1533.22V239H1519.78V230.936ZM1501.35 227.864C1503.74 227.864 1506.04 227.395 1508.26 226.456C1510.57 225.517 1512.53 224.195 1514.15 222.488C1515.86 220.781 1517.22 218.691 1518.25 216.216C1519.27 213.656 1519.78 210.797 1519.78 207.64C1519.78 204.483 1519.27 201.667 1518.25 199.192C1517.22 196.632 1515.86 194.499 1514.15 192.792C1512.53 191.085 1510.57 189.763 1508.26 188.824C1506.04 187.885 1503.74 187.416 1501.35 187.416C1498.87 187.416 1496.53 187.885 1494.31 188.824C1492.09 189.763 1490.13 191.128 1488.42 192.92C1486.8 194.627 1485.48 196.717 1484.45 199.192C1483.43 201.667 1482.92 204.483 1482.92 207.64C1482.92 210.797 1483.43 213.613 1484.45 216.088C1485.48 218.563 1486.8 220.696 1488.42 222.488C1490.13 224.195 1492.09 225.517 1494.31 226.456C1496.53 227.395 1498.87 227.864 1501.35 227.864ZM1609.03 224.024C1606.38 228.888 1602.63 232.941 1597.77 236.184C1592.9 239.427 1586.93 241.048 1579.85 241.048C1575.15 241.048 1570.8 240.237 1566.79 238.616C1562.86 236.909 1559.45 234.563 1556.55 231.576C1553.65 228.589 1551.39 225.091 1549.77 221.08C1548.14 216.984 1547.33 212.504 1547.33 207.64C1547.33 203.117 1548.1 198.851 1549.64 194.84C1551.17 190.744 1553.31 187.203 1556.04 184.216C1558.85 181.144 1562.22 178.712 1566.15 176.92C1570.08 175.128 1574.43 174.232 1579.21 174.232C1584.07 174.232 1588.38 175.043 1592.13 176.664C1595.97 178.285 1599.22 180.547 1601.86 183.448C1604.51 186.349 1606.51 189.848 1607.88 193.944C1609.33 198.04 1610.05 202.52 1610.05 207.384C1610.05 207.811 1610.05 208.195 1610.05 208.536C1609.97 208.963 1609.93 209.347 1609.93 209.688C1609.84 210.029 1609.8 210.371 1609.8 210.712H1561.54C1561.8 213.699 1562.52 216.301 1563.72 218.52C1564.91 220.739 1566.36 222.573 1568.07 224.024C1569.86 225.475 1571.82 226.541 1573.96 227.224C1576.09 227.907 1578.18 228.248 1580.23 228.248C1584.33 228.248 1587.7 227.267 1590.34 225.304C1592.99 223.341 1595.16 220.909 1596.87 218.008L1609.03 224.024ZM1595.85 199.832C1595.68 198.552 1595.25 197.144 1594.57 195.608C1593.97 193.987 1592.99 192.536 1591.62 191.256C1590.34 189.891 1588.64 188.739 1586.5 187.8C1584.45 186.861 1581.94 186.392 1578.95 186.392C1574.85 186.392 1571.31 187.629 1568.33 190.104C1565.42 192.493 1563.46 195.736 1562.44 199.832H1595.85ZM1649.23 241.048C1645.39 241.048 1641.93 240.536 1638.86 239.512C1635.79 238.488 1633.1 237.165 1630.79 235.544C1628.49 233.837 1626.53 231.917 1624.91 229.784C1623.37 227.651 1622.18 225.432 1621.32 223.128L1634.12 217.752C1635.57 221.421 1637.66 224.152 1640.39 225.944C1643.12 227.651 1646.07 228.504 1649.23 228.504C1652.81 228.504 1655.63 227.779 1657.67 226.328C1659.72 224.877 1660.75 223.256 1660.75 221.464C1660.75 219.672 1659.98 218.136 1658.44 216.856C1656.91 215.491 1654 214.296 1649.74 213.272L1640.78 211.096C1638.82 210.669 1636.81 210.029 1634.76 209.176C1632.8 208.237 1630.96 207.085 1629.26 205.72C1627.55 204.269 1626.14 202.563 1625.03 200.6C1624.01 198.552 1623.5 196.163 1623.5 193.432C1623.5 190.36 1624.14 187.629 1625.42 185.24C1626.78 182.851 1628.62 180.845 1630.92 179.224C1633.23 177.603 1635.87 176.365 1638.86 175.512C1641.93 174.659 1645.17 174.232 1648.59 174.232C1651.4 174.232 1654.09 174.531 1656.65 175.128C1659.3 175.725 1661.73 176.621 1663.95 177.816C1666.16 179.011 1668.13 180.547 1669.83 182.424C1671.63 184.216 1673.03 186.349 1674.06 188.824L1661.51 194.072C1660.32 191.341 1658.44 189.379 1655.88 188.184C1653.32 186.904 1650.72 186.264 1648.07 186.264C1646.88 186.264 1645.64 186.435 1644.36 186.776C1643.17 187.032 1642.06 187.459 1641.03 188.056C1640.1 188.568 1639.28 189.251 1638.6 190.104C1638 190.957 1637.71 191.896 1637.71 192.92C1637.71 194.627 1638.43 195.992 1639.88 197.016C1641.42 197.955 1643.72 198.808 1646.79 199.576L1656.39 202.008C1662.88 203.629 1667.62 206.104 1670.6 209.432C1673.67 212.675 1675.21 216.515 1675.21 220.952C1675.21 223.683 1674.57 226.243 1673.29 228.632C1672.1 231.021 1670.35 233.155 1668.04 235.032C1665.74 236.909 1662.96 238.36 1659.72 239.384C1656.56 240.493 1653.07 241.048 1649.23 241.048ZM1696.99 165.144C1694.25 165.144 1691.95 164.205 1690.07 162.328C1688.28 160.451 1687.39 158.189 1687.39 155.544C1687.39 152.899 1688.28 150.637 1690.07 148.76C1691.95 146.883 1694.25 145.944 1696.99 145.944C1699.63 145.944 1701.85 146.883 1703.64 148.76C1705.52 150.637 1706.46 152.899 1706.46 155.544C1706.46 158.189 1705.52 160.451 1703.64 162.328C1701.85 164.205 1699.63 165.144 1696.99 165.144ZM1689.82 239V176.28H1704.03V239H1689.82ZM1751.21 268.696C1746.86 268.696 1742.97 268.099 1739.56 266.904C1736.23 265.795 1733.33 264.344 1730.86 262.552C1728.38 260.76 1726.33 258.755 1724.71 256.536C1723.18 254.317 1722.03 252.184 1721.26 250.136L1734.83 244.632C1736.02 247.96 1738.07 250.648 1740.97 252.696C1743.87 254.829 1747.28 255.896 1751.21 255.896C1757.1 255.896 1761.66 254.104 1764.91 250.52C1768.23 246.936 1769.9 241.987 1769.9 235.672V230.552H1769.13C1767.17 233.368 1764.44 235.715 1760.94 237.592C1757.52 239.469 1753.51 240.408 1748.91 240.408C1745.07 240.408 1741.35 239.597 1737.77 237.976C1734.19 236.355 1730.99 234.093 1728.17 231.192C1725.44 228.291 1723.26 224.792 1721.64 220.696C1720.02 216.6 1719.21 212.12 1719.21 207.256C1719.21 202.392 1720.02 197.955 1721.64 193.944C1723.26 189.848 1725.44 186.349 1728.17 183.448C1730.99 180.547 1734.19 178.285 1737.77 176.664C1741.35 175.043 1745.07 174.232 1748.91 174.232C1753.51 174.232 1757.52 175.171 1760.94 177.048C1764.44 178.925 1767.17 181.272 1769.13 184.088H1769.9V176.28H1783.59V235.416C1783.59 240.792 1782.74 245.528 1781.03 249.624C1779.41 253.805 1777.15 257.304 1774.25 260.12C1771.43 262.936 1768.02 265.069 1764.01 266.52C1760.08 267.971 1755.82 268.696 1751.21 268.696ZM1751.72 227.224C1754.03 227.224 1756.29 226.797 1758.51 225.944C1760.72 225.091 1762.64 223.811 1764.27 222.104C1765.97 220.397 1767.34 218.307 1768.36 215.832C1769.39 213.357 1769.9 210.499 1769.9 207.256C1769.9 204.099 1769.39 201.283 1768.36 198.808C1767.34 196.248 1765.97 194.157 1764.27 192.536C1762.64 190.829 1760.72 189.549 1758.51 188.696C1756.29 187.757 1754.03 187.288 1751.72 187.288C1749.33 187.288 1747.03 187.757 1744.81 188.696C1742.68 189.549 1740.76 190.829 1739.05 192.536C1737.34 194.243 1735.98 196.333 1734.95 198.808C1733.93 201.283 1733.42 204.099 1733.42 207.256C1733.42 210.413 1733.93 213.229 1734.95 215.704C1735.98 218.179 1737.34 220.269 1739.05 221.976C1740.76 223.683 1742.68 225.005 1744.81 225.944C1747.03 226.797 1749.33 227.224 1751.72 227.224ZM1815.36 184.728H1816.13C1818 181.741 1820.65 179.267 1824.06 177.304C1827.56 175.256 1831.49 174.232 1835.84 174.232C1843.77 174.232 1849.7 176.621 1853.63 181.4C1857.56 186.093 1859.52 192.365 1859.52 200.216V239H1845.31V202.136C1845.31 196.675 1844.03 192.877 1841.47 190.744C1839 188.525 1835.71 187.416 1831.61 187.416C1829.14 187.416 1826.96 187.928 1825.09 188.952C1823.21 189.976 1821.59 191.384 1820.22 193.176C1818.86 194.883 1817.83 196.888 1817.15 199.192C1816.47 201.411 1816.13 203.757 1816.13 206.232V239H1801.92V176.28H1815.36V184.728Z" fill="white" fill-opacity="0.75"/>
<path d="M268.056 104L227.853 201.389L187.739 104H187.651H132L211.439 281.662L290 104H268.056Z" fill="white"/>
</svg>
